<svg width="47" height="24" viewBox="0 0 47 24" fill="none" xmlns="http://www.w3.org/2000/svg">
<path d="M46.187 22.266H43.125V21.391H42.187C42.187 12.15 34.044 3.935 23.89 3.649V2.895C25.163 2.751 26.117 2.166 26.117 1.465C26.117 0.656 24.847 0 23.281 0C21.715 0 20.445 0.656 20.445 1.465C20.445 2.2 21.493 2.806 22.859 2.912V3.647C12.676 3.901 4.5 12.131 4.5 21.391H3.562V22.266H0.686996C0.308996 22.266 0 22.575 0 22.953C0 23.331 0.308996 23.641 0.686996 23.641H46.187C46.565 23.641 46.875 23.332 46.875 22.953C46.875 22.575 46.565 22.266 46.187 22.266Z" fill="white"/>
</svg>
